<?xml version="1.0" standalone="no"?>
<!DOCTYPE svg PUBLIC "-//W3C//DTD SVG 20010904//EN"
 "http://www.w3.org/TR/2001/REC-SVG-20010904/DTD/svg10.dtd">
<svg version="1.0" xmlns="http://www.w3.org/2000/svg"
 width="225.000000pt" height="225.000000pt" viewBox="0 0 225.000000 225.000000"
 preserveAspectRatio="xMidYMid meet">
<metadata>
Created by potrace 1.11, written by Peter Selinger 2001-2013
</metadata>
<g transform="translate(0.000000,225.000000) scale(0.100000,-0.100000)"
fill="#000000" stroke="none">
<path d="M2145 2244 c-149 -18 -405 -76 -405 -93 0 -10 399 -406 404 -401 21
23 80 292 92 423 l7 77 -34 -1 c-19 -1 -47 -4 -64 -5z"/>
<path d="M1615 2098 c-11 -6 -22 -13 -25 -15 -2 -2 106 -114 240 -248 l245
-245 17 33 17 32 -227 228 c-125 125 -231 227 -237 227 -5 0 -19 -6 -30 -12z"/>
<path d="M1424 1984 c-120 -81 -186 -135 -308 -254 -135 -131 -242 -261 -342
-411 -75 -113 -214 -378 -214 -406 0 -16 145 -166 301 -311 l46 -44 148 76
c273 141 486 296 685 502 115 120 199 223 260 323 l33 53 -259 259 c-143 143
-264 259 -270 259 -6 0 -41 -21 -80 -46z m125 -368 c83 -43 117 -163 70 -246
-90 -160 -334 -93 -332 91 1 71 36 123 108 163 35 19 108 15 154 -8z"/>
<path d="M1423 1545 c-91 -39 -59 -185 42 -185 51 0 95 44 95 95 0 49 -15 74
-55 91 -41 17 -42 17 -82 -1z"/>
<path d="M558 1511 c-128 -41 -258 -135 -366 -263 -65 -77 -153 -202 -182
-257 l-12 -24 33 20 c19 11 50 30 70 41 20 12 67 33 105 48 56 21 82 25 136
22 58 -3 74 -9 120 -40 l52 -37 66 127 c36 70 98 177 138 238 40 61 72 113 72
116 0 7 -117 28 -151 27 -13 0 -49 -8 -81 -18z"/>
<path d="M1445 768 c-62 -46 -200 -130 -322 -195 l-111 -58 30 -35 c38 -46 62
-128 53 -183 -9 -55 -47 -148 -90 -220 -19 -32 -35 -61 -35 -64 0 -7 86 43
145 86 179 127 271 226 341 366 38 76 46 103 51 166 6 77 -3 170 -15 168 -4 0
-25 -14 -47 -31z"/>
<path d="M447 727 c-15 -23 -13 -26 103 -142 l118 -118 32 13 32 13 -129 129
c-70 70 -131 128 -134 128 -4 0 -14 -11 -22 -23z"/>
<path d="M215 439 c-52 -51 -95 -95 -95 -98 0 -4 10 -12 21 -20 20 -12 28 -7
110 75 49 49 89 94 89 100 0 6 -7 17 -15 24 -13 11 -30 -2 -110 -81z"/>
<path d="M232 297 c-146 -146 -152 -154 -134 -170 17 -16 26 -9 172 138 132
133 152 156 141 169 -8 9 -16 16 -20 16 -3 0 -75 -69 -159 -153z"/>
<path d="M350 255 c-109 -109 -114 -116 -97 -132 16 -17 23 -12 134 99 101
101 115 119 104 132 -8 9 -16 16 -20 16 -3 0 -58 -52 -121 -115z"/>
<path d="M62 288 c-16 -16 -15 -33 3 -48 13 -10 19 -9 35 5 19 17 19 19 4 37
-20 21 -26 22 -42 6z"/>
<path d="M20 85 c-9 -11 -9 -18 3 -35 14 -20 14 -20 32 0 15 16 15 22 5 35
-16 19 -24 19 -40 0z"/>
<path d="M176 82 c-15 -18 -15 -20 2 -35 18 -16 20 -16 37 3 14 16 15 22 5 35
-16 19 -23 19 -44 -3z"/>
</g>
</svg>
