<?xml version="1.0" standalone="no"?>
<!DOCTYPE svg PUBLIC "-//W3C//DTD SVG 20010904//EN"
 "http://www.w3.org/TR/2001/REC-SVG-20010904/DTD/svg10.dtd">
<svg version="1.0" xmlns="http://www.w3.org/2000/svg"
 width="982.000000pt" height="982.000000pt" viewBox="0 0 982.000000 982.000000"
 preserveAspectRatio="xMidYMid meet">
<metadata>
Created by potrace 1.11, written by Peter Selinger 2001-2013
</metadata>
<g transform="translate(0.000000,982.000000) scale(0.100000,-0.100000)"
fill="#000000" stroke="none">
<path d="M9560 9813 c-357 -27 -752 -83 -1105 -159 -217 -47 -789 -218 -831
-249 -16 -12 -17 -15 -2 -36 48 -73 1751 -1789 1764 -1777 3 4 26 64 51 135
184 529 355 1408 370 1906 l6 187 -104 -2 c-57 -1 -124 -3 -149 -5z"/>
<path d="M7115 9192 c-122 -65 -175 -100 -175 -115 0 -11 2139 -2157 2150
-2157 3 0 41 72 85 160 l80 160 -405 406 c-694 695 -1612 1594 -1629 1594 -9
0 -56 -22 -106 -48z"/>
<path d="M6515 8840 c-91 -48 -370 -231 -550 -360 -1177 -845 -2199 -2003
-2967 -3360 -130 -228 -493 -958 -537 -1078 l-35 -93 505 -505 c516 -517 969
-956 1013 -983 21 -13 30 -13 68 -1 61 20 854 418 1097 550 657 359 1397 887
2021 1444 183 163 638 618 795 796 339 384 592 719 874 1159 l124 193 -129
130 c-200 201 -1734 1711 -1964 1932 -113 109 -213 202 -222 207 -12 7 -37 -1
-93 -31z m117 -1729 c100 -26 159 -57 251 -130 123 -100 220 -230 267 -361 76
-207 60 -414 -48 -625 -37 -74 -63 -107 -142 -186 -83 -82 -111 -104 -191
-143 -114 -56 -184 -74 -309 -82 -179 -12 -315 24 -462 122 -148 99 -263 246
-321 412 -26 74 -31 105 -35 213 -3 103 -1 140 16 206 73 287 289 507 582 592
57 17 303 6 392 -18z"/>
<path d="M6305 6787 c-118 -30 -241 -133 -293 -244 -25 -53 -27 -69 -27 -173
0 -95 4 -124 23 -170 44 -111 137 -201 250 -244 77 -29 207 -33 289 -8 126 39
237 140 284 259 32 82 33 233 1 313 -45 113 -141 206 -261 251 -69 26 -196 34
-266 16z"/>
<path d="M2630 6650 c-366 -79 -822 -312 -1209 -617 -199 -157 -551 -529 -787
-834 -295 -379 -674 -979 -619 -979 3 0 58 33 122 74 355 222 698 387 979 472
79 24 110 28 271 32 204 5 289 -7 424 -59 86 -33 243 -134 364 -233 44 -36 83
-66 86 -66 4 0 30 51 60 113 322 674 537 1046 1061 1830 55 81 102 155 105
163 7 19 -38 37 -173 68 -259 59 -515 73 -684 36z"/>
<path d="M6455 3444 c-325 -238 -740 -498 -1236 -775 -163 -91 -740 -388 -779
-401 -12 -4 -6 -16 25 -52 157 -187 263 -370 305 -531 33 -125 38 -312 10
-444 -63 -308 -252 -721 -513 -1124 -38 -59 -67 -110 -64 -113 12 -13 363 198
620 372 786 533 1269 1035 1563 1624 137 276 201 469 224 682 13 123 13 408 0
558 -10 109 -45 270 -59 270 -3 0 -46 -30 -96 -66z"/>
<path d="M2012 3268 c-16 -24 -49 -82 -75 -129 l-47 -86 520 -517 c285 -284
524 -516 531 -516 26 0 269 134 269 148 0 8 -885 891 -1043 1040 -59 56 -112
102 -117 102 -5 0 -22 -19 -38 -42z"/>
<path d="M939 1903 l-419 -417 82 -83 c46 -45 88 -83 94 -83 13 0 739 730 797
802 27 33 37 53 33 66 -10 31 -122 132 -146 132 -15 0 -148 -125 -441 -417z"/>
<path d="M1027 1322 l-687 -687 83 -83 c46 -45 87 -82 93 -82 5 0 316 307 692
683 l682 682 -88 88 -87 87 -688 -688z"/>
<path d="M1785 1388 c-303 -297 -735 -744 -735 -762 0 -35 115 -146 151 -146
21 0 570 530 843 814 l189 197 -79 80 c-43 43 -83 79 -90 79 -6 0 -131 -118
-279 -262z"/>
<path d="M271 1235 c-39 -41 -71 -84 -71 -95 0 -35 120 -150 157 -150 14 0
173 147 173 160 0 16 -153 160 -170 160 -10 0 -50 -34 -89 -75z"/>
<path d="M85 380 l-80 -80 88 -87 87 -88 85 85 c47 46 85 88 85 91 0 15 -154
159 -169 159 -9 0 -52 -36 -96 -80z"/>
<path d="M813 416 c-27 -25 -62 -63 -77 -85 l-29 -41 29 -41 c30 -43 108 -109
129 -109 19 0 108 74 148 123 l36 44 -78 77 c-43 42 -85 76 -94 76 -8 0 -37
-20 -64 -44z"/>
</g>
</svg>
